<?xml version="1.0" encoding="utf-8"?>
<svg viewBox="41.847 26.3297 436.5053 434.8744" xmlns="http://www.w3.org/2000/svg">
    <path d="M 89.264 111.868 C 89.846 112.265 89.846 112.265 90.4 112.778 C 90.61 112.972 90.821 113.165 91.038 113.365 C 92.245 114.52 93.438 115.687 94.621 116.868 C 95.023 117.268 95.023 117.268 95.432 117.676 C 95.994 118.236 96.554 118.796 97.115 119.356 C 97.69 119.931 98.266 120.506 98.843 121.078 C 99.677 121.908 100.51 122.739 101.343 123.571 C 101.602 123.828 101.862 124.086 102.129 124.351 C 102.366 124.589 102.603 124.827 102.847 125.071 C 103.057 125.281 103.267 125.49 103.483 125.706 C 103.93 126.229 103.93 126.229 103.93 126.84 C 104.132 126.84 104.334 126.84 104.541 126.84 C 104.705 127.048 104.869 127.256 105.038 127.47 C 105.643 128.219 106.204 128.778 106.928 129.399 C 107.786 130.134 108.621 130.882 109.43 131.671 C 109.606 131.843 109.783 132.015 109.965 132.193 C 110.347 132.645 110.347 132.645 110.347 133.256 C 110.518 133.328 110.689 133.399 110.866 133.473 C 112.737 134.522 114.233 136.435 115.598 138.068 C 116.539 139.164 117.576 140.13 118.64 141.102 C 122.049 144.254 125.308 147.562 128.589 150.846 C 129.52 151.778 130.452 152.709 131.383 153.641 C 132.944 155.201 134.505 156.762 136.064 158.323 C 137.862 160.122 139.661 161.921 141.46 163.718 C 143.015 165.271 144.569 166.825 146.122 168.379 C 147.046 169.304 147.97 170.228 148.894 171.151 C 149.762 172.018 150.628 172.885 151.495 173.753 C 151.81 174.069 152.127 174.386 152.444 174.702 C 154.001 176.256 155.53 177.816 156.957 179.492 C 157.671 180.318 158.439 181.088 159.214 181.856 C 159.453 182.094 159.453 182.094 159.696 182.337 C 160.531 183.162 161.376 183.96 162.269 184.721 C 164.534 186.653 166.687 188.807 168.609 191.08 C 169.587 192.229 170.687 193.198 171.816 194.195 C 172.812 195.098 173.769 196.032 174.72 196.981 C 174.88 197.139 175.039 197.297 175.204 197.46 C 176.072 198.332 176.896 199.226 177.697 200.16 C 178.905 201.555 180.243 202.777 181.614 204.009 C 183.035 205.312 184.353 206.691 185.664 208.103 C 189.389 212.103 193.287 215.937 197.154 219.798 C 198.278 220.921 199.401 222.044 200.524 223.168 C 201.397 224.044 202.272 224.918 203.147 225.792 C 203.561 226.206 203.975 226.62 204.389 227.035 C 207.144 229.799 207.144 229.799 210.043 232.408 C 210.961 233.209 211.805 234.084 212.655 234.956 C 213.04 235.346 213.424 235.736 213.809 236.126 C 214.404 236.73 214.997 237.334 215.589 237.94 C 216.169 238.532 216.751 239.122 217.334 239.711 C 217.507 239.89 217.681 240.069 217.86 240.254 C 221.052 243.466 224.089 243.93 228.484 243.986 C 234.898 244.077 241.372 244.388 247.535 246.307 C 247.803 246.389 248.071 246.471 248.348 246.556 C 256.699 249.15 264.111 252.49 270.867 258.113 C 271.356 258.519 271.85 258.918 272.344 259.317 C 275.059 261.544 277.521 264.022 279.979 266.525 C 280.252 266.802 280.526 267.08 280.808 267.366 C 281.049 267.613 281.291 267.86 281.54 268.115 C 282.178 268.734 282.821 269.315 283.495 269.894 C 284.756 270.994 285.948 272.15 287.13 273.335 C 287.347 273.552 287.565 273.769 287.789 273.992 C 288.5 274.702 289.21 275.413 289.92 276.124 C 290.418 276.622 290.917 277.12 291.415 277.618 C 292.456 278.659 293.497 279.701 294.538 280.743 C 295.867 282.073 297.197 283.403 298.528 284.731 C 299.556 285.759 300.584 286.787 301.611 287.815 C 302.101 288.305 302.592 288.795 303.082 289.285 C 303.769 289.971 304.455 290.659 305.141 291.346 C 305.341 291.546 305.541 291.745 305.747 291.95 C 306.911 293.119 308.018 294.323 309.093 295.574 C 310.513 297.205 312.075 298.742 313.742 300.12 C 314.469 300.724 315.082 301.355 315.691 302.077 C 317.063 303.662 318.54 305.134 320.023 306.614 C 320.322 306.913 320.622 307.213 320.921 307.513 C 321.545 308.137 322.169 308.761 322.794 309.384 C 323.588 310.177 324.381 310.971 325.174 311.765 C 325.791 312.383 326.408 313 327.026 313.617 C 327.459 314.05 327.891 314.483 328.324 314.916 C 328.726 315.317 328.726 315.317 329.136 315.726 C 329.369 315.958 329.601 316.19 329.84 316.43 C 330.483 317.041 331.134 317.623 331.804 318.202 C 333.106 319.333 334.328 320.53 335.546 321.751 C 335.778 321.982 336.01 322.214 336.25 322.453 C 337.011 323.213 337.77 323.973 338.53 324.734 C 339.063 325.266 339.595 325.799 340.128 326.331 C 341.241 327.444 342.354 328.557 343.466 329.671 C 344.887 331.094 346.31 332.516 347.733 333.937 C 348.833 335.035 349.931 336.134 351.029 337.233 C 351.553 337.757 352.078 338.282 352.602 338.806 C 353.337 339.539 354.071 340.274 354.804 341.009 C 355.019 341.223 355.233 341.437 355.453 341.657 C 356.635 342.843 357.754 344.062 358.848 345.329 C 359.651 346.239 360.503 347.096 361.362 347.952 C 361.549 348.139 361.736 348.327 361.929 348.52 C 362.54 349.132 363.151 349.743 363.763 350.354 C 364.193 350.784 364.622 351.214 365.052 351.643 C 365.949 352.541 366.847 353.438 367.745 354.335 C 368.89 355.479 370.035 356.624 371.179 357.77 C 372.064 358.657 372.951 359.543 373.837 360.429 C 374.26 360.85 374.681 361.273 375.103 361.695 C 375.694 362.287 376.286 362.878 376.879 363.469 C 377.05 363.64 377.22 363.811 377.396 363.988 C 378.264 364.851 379.15 365.678 380.078 366.477 C 381.577 367.775 382.977 369.167 384.383 370.564 C 384.678 370.856 384.973 371.148 385.268 371.44 C 386.226 372.389 387.183 373.339 388.14 374.29 C 388.303 374.452 388.466 374.615 388.635 374.782 C 390.177 376.315 391.719 377.849 393.259 379.384 C 395.223 381.34 397.189 383.294 399.16 385.244 C 400.55 386.619 401.936 387.998 403.32 389.38 C 404.145 390.203 404.971 391.025 405.802 391.844 C 406.582 392.612 407.357 393.385 408.129 394.161 C 408.548 394.579 408.971 394.993 409.394 395.407 C 411.431 397.469 411.431 397.469 411.648 398.766 C 411.606 399.791 411.522 400.082 410.809 400.796 C 410.611 400.999 410.413 401.202 410.209 401.411 C 409.844 401.768 409.844 401.768 409.472 402.133 C 409.168 402.446 408.865 402.76 408.562 403.074 C 406.81 404.88 405.016 406.563 403.041 408.125 C 402.143 408.851 401.277 409.604 400.411 410.368 C 395.087 415.057 395.087 415.057 392.973 414.965 C 391.345 414.157 390.159 413.198 388.895 411.905 C 388.633 411.642 388.633 411.642 388.365 411.373 C 387.997 411.003 387.631 410.633 387.265 410.261 C 386.712 409.699 386.157 409.14 385.6 408.581 C 385.241 408.219 384.881 407.857 384.522 407.494 C 384.36 407.33 384.197 407.166 384.029 406.997 C 383.214 406.166 382.431 405.321 381.678 404.434 C 380.156 402.69 378.507 401.07 376.869 399.437 C 376.507 399.074 376.144 398.711 375.782 398.349 C 374.79 397.356 373.798 396.365 372.806 395.374 C 371.734 394.304 370.663 393.232 369.592 392.161 C 367.737 390.306 365.881 388.452 364.026 386.598 C 361.341 383.915 358.658 381.232 355.974 378.549 C 351.617 374.193 347.26 369.838 342.902 365.484 C 338.674 361.258 334.446 357.032 330.218 352.805 C 329.957 352.545 329.697 352.285 329.428 352.016 C 328.121 350.709 326.814 349.403 325.507 348.096 C 316.501 339.092 307.494 330.089 298.486 321.087 C 298.294 320.895 298.102 320.703 297.904 320.505 C 297.015 319.617 296.126 318.728 295.237 317.84 C 295.079 317.682 294.921 317.524 294.758 317.361 C 294.34 316.943 293.922 316.526 293.504 316.108 C 292.441 315.045 291.378 313.983 290.316 312.919 C 290.151 312.754 289.987 312.59 289.818 312.421 C 289.642 312.245 289.466 312.069 289.285 311.887 C 288.889 311.491 288.493 311.094 288.098 310.698 C 287.887 310.488 287.677 310.277 287.461 310.061 C 282.622 305.217 277.783 300.374 272.943 295.531 C 270.145 292.732 267.349 289.933 264.553 287.134 C 262.11 284.688 259.667 282.243 257.224 279.799 C 255.932 278.507 254.64 277.214 253.348 275.92 C 252.134 274.703 250.918 273.487 249.702 272.271 C 249.257 271.826 248.812 271.381 248.367 270.935 C 245.51 268.047 245.51 268.047 242.487 265.336 C 241.766 264.711 241.153 264.001 240.526 263.283 C 238.98 261.552 237.314 259.974 235.611 258.398 C 234.326 257.203 233.07 255.986 231.838 254.736 C 231.558 254.453 231.279 254.17 230.991 253.878 C 230.451 253.328 229.913 252.775 229.376 252.221 C 225.905 248.687 222.292 245.841 217.211 245.684 C 216.729 245.659 216.729 245.659 216.238 245.635 C 215.219 245.585 214.2 245.544 213.18 245.504 C 206.87 245.235 200.759 244.74 194.676 242.946 C 194.452 242.88 194.228 242.814 193.998 242.746 C 187.735 240.843 181.699 237.845 176.344 234.085 C 175.988 233.845 175.633 233.605 175.278 233.366 C 172.834 231.698 170.676 229.827 168.541 227.784 C 167.905 227.185 167.244 226.617 166.585 226.045 C 165.419 224.998 164.351 223.884 163.295 222.727 C 160.107 219.278 156.759 215.984 153.437 212.665 C 152.491 211.72 151.546 210.774 150.6 209.828 C 149.018 208.245 147.434 206.662 145.851 205.08 C 144.02 203.251 142.191 201.421 140.362 199.59 C 138.785 198.013 137.208 196.435 135.63 194.858 C 134.69 193.919 133.751 192.979 132.812 192.039 C 131.933 191.159 131.053 190.28 130.172 189.401 C 129.849 189.078 129.526 188.755 129.203 188.432 C 128.764 187.992 128.324 187.553 127.884 187.114 C 127.638 186.868 127.392 186.622 127.138 186.368 C 126.579 185.792 126.579 185.792 125.929 185.504 C 125.929 185.302 125.929 185.1 125.929 184.893 C 125.728 184.893 125.526 184.893 125.318 184.893 C 124.901 184.47 124.901 184.47 124.407 183.87 C 123.029 182.251 121.534 180.76 120.03 179.26 C 119.718 178.947 119.405 178.634 119.093 178.321 C 118.251 177.477 117.408 176.635 116.565 175.793 C 115.678 174.907 114.793 174.021 113.907 173.135 C 112.421 171.648 110.933 170.161 109.445 168.675 C 107.73 166.961 106.016 165.246 104.303 163.531 C 102.826 162.053 101.349 160.576 99.871 159.099 C 98.991 158.22 98.111 157.34 97.232 156.459 C 96.405 155.631 95.577 154.804 94.748 153.977 C 94.446 153.675 94.144 153.373 93.842 153.071 C 92.33 151.556 90.805 150.081 89.181 148.687 C 88.459 148.059 87.778 147.394 87.1 146.719 C 86.822 146.443 86.543 146.166 86.257 145.882 C 85.962 145.587 85.667 145.293 85.372 144.998 C 85.063 144.69 84.753 144.381 84.444 144.073 C 83.8 143.431 83.157 142.788 82.514 142.145 C 81.692 141.324 80.869 140.504 80.044 139.685 C 79.407 139.051 78.77 138.415 78.134 137.779 C 77.831 137.476 77.528 137.174 77.223 136.872 C 76.798 136.45 76.376 136.026 75.954 135.602 C 75.593 135.243 75.593 135.243 75.226 134.876 C 74.241 133.773 73.695 133.034 73.643 131.537 C 73.838 130.405 74.305 129.614 74.932 128.657 C 75.125 128.362 75.318 128.066 75.517 127.761 C 75.718 127.457 75.919 127.153 76.126 126.84 C 76.314 126.552 76.502 126.265 76.695 125.969 C 78.81 122.744 80.953 119.54 83.211 116.413 C 83.368 116.195 83.526 115.976 83.688 115.751 C 86.981 111.237 86.981 111.237 89.264 111.868 Z" fill="#9A9A9A" style="" transform="matrix(1, 0, 0, 1, 1.1368683772161603e-13, 0)"/>
    <path d="M 130.207 70.926 C 131.644 71.715 132.734 72.818 133.799 74.047 C 135.874 76.374 138.098 78.552 140.303 80.753 C 140.802 81.253 141.301 81.752 141.8 82.251 C 143.167 83.618 144.534 84.984 145.901 86.35 C 147.226 87.673 148.549 88.998 149.873 90.322 C 152.58 93.029 155.288 95.736 157.996 98.442 C 160.677 101.121 163.358 103.8 166.038 106.48 C 166.205 106.647 166.372 106.814 166.544 106.986 C 167.391 107.834 168.239 108.681 169.087 109.529 C 175.087 115.528 181.087 121.527 187.088 127.525 C 192.913 133.347 198.738 139.169 204.562 144.992 C 204.741 145.171 204.921 145.351 205.106 145.536 C 206.909 147.339 208.712 149.141 210.515 150.944 C 214.192 154.62 217.869 158.296 221.545 161.972 C 221.714 162.141 221.884 162.31 222.058 162.484 C 232.287 172.71 242.517 182.936 252.747 193.162 C 252.964 193.378 253.181 193.595 253.404 193.819 C 253.802 194.216 254.199 194.613 254.597 195.011 C 254.86 195.274 254.86 195.274 255.129 195.543 C 255.293 195.707 255.457 195.871 255.626 196.039 C 256.062 196.476 256.499 196.912 256.935 197.349 C 257.415 197.829 257.898 198.307 258.382 198.784 C 260.691 201.069 260.691 201.069 261.475 202.06 C 262.057 202.75 262.584 203.267 263.267 203.842 C 264.722 205.103 266.076 206.455 267.432 207.822 C 267.884 208.278 268.336 208.733 268.789 209.187 C 269.914 210.316 271.036 211.446 272.159 212.576 C 273.112 213.534 274.065 214.492 275.019 215.449 C 275.461 215.893 275.902 216.338 276.343 216.783 C 277.74 218.186 279.151 219.548 280.659 220.832 C 281.25 221.344 281.78 221.899 282.309 222.474 C 284.595 224.796 286.9 226.163 290.153 226.195 C 298.78 226.331 307.156 226.916 315.365 229.807 C 315.692 229.922 316.019 230.036 316.355 230.154 C 322.925 232.489 328.744 235.381 334.309 239.585 C 334.597 239.802 334.885 240.019 335.182 240.242 C 339.452 243.567 343.206 247.521 347.022 251.342 C 347.621 251.941 348.221 252.54 348.82 253.138 C 350.27 254.587 351.72 256.037 353.169 257.487 C 354.348 258.667 355.526 259.845 356.705 261.024 C 356.874 261.192 357.042 261.361 357.216 261.534 C 357.558 261.877 357.901 262.219 358.243 262.561 C 361.444 265.761 364.644 268.962 367.844 272.164 C 370.585 274.906 373.327 277.649 376.07 280.39 C 379.263 283.581 382.455 286.772 385.646 289.965 C 385.987 290.305 386.328 290.646 386.668 290.987 C 386.836 291.154 387.003 291.322 387.176 291.495 C 388.353 292.672 389.53 293.849 390.708 295.025 C 392.143 296.46 393.578 297.895 395.011 299.33 C 395.742 300.062 396.473 300.793 397.205 301.524 C 397.999 302.317 398.793 303.112 399.586 303.907 C 399.93 304.249 399.93 304.249 400.28 304.599 C 401.502 305.825 402.668 307.077 403.786 308.399 C 404.484 309.171 405.265 309.825 406.057 310.498 C 407.395 311.672 408.636 312.952 409.893 314.212 C 410.193 314.511 410.492 314.811 410.792 315.11 C 411.416 315.734 412.04 316.358 412.663 316.983 C 413.456 317.777 414.25 318.57 415.044 319.363 C 415.662 319.98 416.279 320.597 416.896 321.215 C 417.329 321.648 417.762 322.08 418.195 322.512 C 419.571 323.893 420.909 325.288 422.175 326.771 C 423.626 328.453 425.254 329.999 426.945 331.438 C 427.965 332.309 428.814 333.26 429.679 334.283 C 430.202 334.862 430.731 335.352 431.328 335.852 C 432.978 337.278 434.51 338.819 436.051 340.36 C 436.368 340.675 436.685 340.992 437.002 341.308 C 437.662 341.965 438.321 342.623 438.979 343.282 C 439.822 344.125 440.667 344.966 441.513 345.806 C 442.166 346.456 442.818 347.107 443.469 347.759 C 443.78 348.07 444.092 348.38 444.404 348.69 C 444.839 349.122 445.272 349.555 445.704 349.99 C 445.951 350.236 446.197 350.482 446.451 350.735 C 447.305 351.696 447.665 352.277 447.665 353.571 C 446.963 357.249 443.858 360.836 441.859 363.94 C 441.742 364.124 441.624 364.307 441.503 364.496 C 439.918 366.963 438.175 369.278 436.359 371.579 C 436.146 371.862 435.933 372.147 435.714 372.439 C 435.137 373.106 435.137 373.106 434.24 373.412 C 432.529 373.412 431.505 372.295 430.354 371.15 C 430.181 370.975 430.008 370.8 429.831 370.62 C 429.648 370.437 429.466 370.255 429.277 370.066 C 428.892 369.68 428.507 369.293 428.123 368.905 C 427.542 368.319 426.959 367.735 426.376 367.151 C 424.717 365.488 423.087 363.823 421.564 362.033 C 420.639 361 419.604 360.08 418.581 359.147 C 416.347 357.107 416.347 357.107 415.586 356.143 C 415.054 355.486 414.562 355.016 413.921 354.476 C 412.261 353.037 410.721 351.482 409.17 349.929 C 408.839 349.598 408.508 349.268 408.177 348.937 C 407.284 348.046 406.393 347.154 405.501 346.261 C 404.565 345.324 403.627 344.387 402.689 343.45 C 401.116 341.877 399.543 340.303 397.97 338.729 C 396.157 336.914 394.342 335.1 392.527 333.286 C 390.963 331.724 389.4 330.161 387.838 328.598 C 386.907 327.667 385.976 326.736 385.044 325.805 C 384.168 324.93 383.293 324.054 382.418 323.177 C 382.098 322.857 381.778 322.537 381.458 322.218 C 379.898 320.661 378.371 319.092 376.936 317.418 C 376.259 316.641 375.539 315.913 374.811 315.184 C 374.659 315.033 374.508 314.881 374.352 314.724 C 373.86 314.231 373.367 313.74 372.875 313.248 C 372.527 312.9 372.18 312.553 371.833 312.205 C 371.108 311.48 370.383 310.756 369.658 310.031 C 368.734 309.109 367.812 308.186 366.89 307.262 C 366.174 306.545 365.457 305.829 364.74 305.113 C 364.4 304.773 364.06 304.433 363.721 304.092 C 362.112 302.481 360.497 300.899 358.767 299.417 C 357.369 298.172 356.067 296.823 354.747 295.496 C 354.426 295.174 354.104 294.852 353.783 294.53 C 352.942 293.688 352.103 292.846 351.263 292.003 C 350.41 291.147 349.557 290.292 348.703 289.437 C 347.201 287.932 345.699 286.426 344.199 284.92 C 342.843 283.56 341.484 282.204 340.125 280.849 C 338.336 279.065 336.549 277.281 334.761 275.496 C 333.683 274.419 332.604 273.343 331.525 272.267 C 330.476 271.221 329.428 270.175 328.381 269.129 C 327.984 268.733 327.587 268.336 327.189 267.94 C 323.689 264.454 323.689 264.454 322.514 263.059 C 321.571 261.952 320.517 261.002 319.437 260.031 C 316.854 257.686 314.431 255.171 311.975 252.695 C 311.224 251.938 310.471 251.183 309.718 250.427 C 307.166 247.864 304.614 245.299 302.065 242.732 C 300.651 241.307 299.235 239.884 297.818 238.463 C 296.926 237.569 296.036 236.673 295.148 235.775 C 294.464 235.084 293.776 234.397 293.089 233.708 C 292.847 233.463 292.606 233.218 292.357 232.965 C 289.896 230.513 287.496 228.599 283.931 228.398 C 283.731 228.386 283.53 228.375 283.324 228.362 C 281.572 228.269 279.821 228.253 278.067 228.237 C 262.109 228.032 244.94 222.16 233.518 210.635 C 233.359 210.467 233.2 210.299 233.036 210.126 C 232.533 209.611 232.004 209.152 231.456 208.687 C 230.293 207.683 229.201 206.619 228.114 205.536 C 227.871 205.295 227.871 205.295 227.623 205.049 C 226.782 204.206 225.98 203.344 225.207 202.438 C 223.853 200.885 222.401 199.437 220.943 197.982 C 220.64 197.678 220.336 197.374 220.033 197.07 C 219.215 196.251 218.397 195.434 217.578 194.616 C 216.718 193.756 215.858 192.895 214.998 192.035 C 213.555 190.591 212.11 189.147 210.666 187.704 C 209.001 186.041 207.337 184.376 205.673 182.711 C 204.239 181.276 202.805 179.841 201.37 178.408 C 200.516 177.553 199.661 176.699 198.807 175.844 C 198.004 175.04 197.2 174.237 196.396 173.434 C 195.964 173.003 195.532 172.57 195.101 172.138 C 193.742 170.783 192.368 169.47 190.905 168.229 C 190.142 167.557 189.483 166.808 188.813 166.045 C 187.632 164.724 186.402 163.492 185.09 162.302 C 183.684 161.026 182.309 159.728 180.965 158.387 C 180.809 158.232 180.653 158.077 180.492 157.918 C 179.661 157.085 178.873 156.23 178.106 155.338 C 176.733 153.754 175.25 152.284 173.765 150.806 C 173.49 150.529 173.214 150.252 172.929 149.966 C 171.559 148.597 170.17 147.278 168.7 146.016 C 167.511 144.961 166.405 143.82 165.287 142.69 C 165.048 142.45 164.81 142.21 164.564 141.963 C 164.106 141.502 163.648 141.041 163.191 140.58 C 162.24 139.621 161.286 138.666 160.324 137.719 C 160.078 137.475 159.831 137.231 159.577 136.98 C 159.332 136.738 159.087 136.497 158.835 136.248 C 158.219 135.61 157.641 134.97 157.065 134.297 C 155.795 132.841 154.443 131.477 153.076 130.114 C 152.813 129.851 152.551 129.588 152.28 129.317 C 151.729 128.765 151.176 128.213 150.623 127.662 C 149.783 126.823 148.944 125.983 148.105 125.142 C 147.566 124.603 147.027 124.064 146.488 123.525 C 146.115 123.152 146.115 123.152 145.736 122.772 C 144.439 121.481 143.122 120.236 141.728 119.05 C 140.928 118.344 140.236 117.573 139.526 116.776 C 137.845 114.912 136.142 113.104 134.236 111.467 C 132.221 109.729 130.292 107.837 128.584 105.796 C 127.415 104.421 126.075 103.241 124.746 102.026 C 123.592 100.966 122.527 99.879 121.519 98.677 C 120.256 97.203 118.842 95.872 117.374 94.605 C 111.452 89.483 111.452 89.483 111.203 87.177 C 111.281 84.759 112.639 83.531 114.319 81.925 C 114.553 81.699 114.788 81.472 115.03 81.239 C 116.614 79.767 118.294 78.431 120.003 77.11 C 121.106 76.255 122.175 75.374 123.227 74.459 C 127.913 70.389 127.913 70.389 130.207 70.926 Z" fill="#818181" style="" transform="matrix(1, 0, 0, 1, 1.1368683772161603e-13, 0)"/>
    <path d="M 58.099 163.81 C 59.261 163.972 59.895 164.223 60.755 165.018 C 60.966 165.212 61.177 165.406 61.395 165.606 C 62.641 166.802 63.871 168.012 65.091 169.235 C 65.386 169.53 65.681 169.824 65.976 170.119 C 66.77 170.911 67.563 171.705 68.356 172.499 C 69.191 173.334 70.025 174.168 70.86 175.002 C 72.261 176.403 73.661 177.804 75.061 179.205 C 76.675 180.82 78.29 182.435 79.905 184.048 C 81.297 185.439 82.689 186.83 84.08 188.222 C 84.908 189.051 85.737 189.88 86.566 190.708 C 87.346 191.487 88.125 192.267 88.904 193.047 C 89.322 193.466 89.742 193.885 90.161 194.303 C 91.473 195.619 92.733 196.956 93.945 198.365 C 94.842 199.383 95.805 200.337 96.766 201.295 C 96.986 201.515 97.206 201.736 97.432 201.963 C 98.152 202.684 98.873 203.404 99.594 204.124 C 100.099 204.629 100.604 205.134 101.109 205.639 C 102.164 206.695 103.22 207.75 104.276 208.805 C 105.625 210.153 106.973 211.501 108.321 212.851 C 109.362 213.893 110.404 214.935 111.446 215.977 C 111.943 216.473 112.441 216.971 112.937 217.468 C 113.633 218.165 114.33 218.86 115.027 219.556 C 115.33 219.86 115.33 219.86 115.639 220.17 C 116.807 221.332 118.007 222.437 119.261 223.506 C 120.246 224.382 121.124 225.358 122.014 226.329 C 124.708 229.227 127.493 232.029 130.294 234.823 C 131.132 235.659 131.969 236.498 132.805 237.336 C 133.346 237.876 133.886 238.417 134.427 238.957 C 134.673 239.204 134.919 239.45 135.173 239.704 C 136.231 240.758 137.293 241.789 138.428 242.761 C 139.858 243.994 141.172 245.336 142.494 246.682 C 142.952 247.149 143.411 247.614 143.872 248.079 C 145.178 249.398 146.484 250.718 147.784 252.043 C 148.585 252.859 149.388 253.671 150.194 254.482 C 150.497 254.787 150.798 255.094 151.099 255.402 C 153.999 258.374 156.772 260.785 161.042 261.046 C 161.462 261.048 161.881 261.048 162.301 261.045 C 162.775 261.049 163.248 261.053 163.722 261.057 C 163.968 261.058 164.214 261.06 164.467 261.061 C 186.203 261.248 202.878 270.943 217.9 285.991 C 218.316 286.406 218.731 286.821 219.147 287.236 C 220.264 288.351 221.381 289.469 222.497 290.586 C 223.67 291.76 224.844 292.933 226.018 294.107 C 227.987 296.075 229.956 298.044 231.924 300.014 C 234.195 302.287 236.467 304.558 238.74 306.829 C 240.698 308.785 242.655 310.743 244.612 312.7 C 245.778 313.867 246.944 315.033 248.11 316.199 C 249.206 317.294 250.301 318.389 251.396 319.486 C 251.796 319.886 252.197 320.287 252.598 320.687 C 256.27 324.353 256.27 324.353 257.799 326.165 C 258.631 327.131 259.542 328.021 260.445 328.921 C 260.749 329.226 260.749 329.226 261.06 329.537 C 261.485 329.962 261.91 330.387 262.336 330.811 C 262.984 331.458 263.63 332.106 264.277 332.754 C 264.692 333.17 265.109 333.585 265.524 334.001 C 265.716 334.192 265.907 334.384 266.103 334.581 C 266.948 335.421 267.795 336.231 268.716 336.986 C 269.534 337.663 269.534 337.663 270.126 338.408 C 270.655 339.066 271.124 339.521 271.768 340.051 C 272.563 340.709 273.238 341.395 273.903 342.184 C 274.914 343.354 275.991 344.4 277.134 345.439 C 280.357 348.419 283.454 351.526 286.557 354.63 C 287.405 355.478 288.254 356.323 289.105 357.169 C 289.764 357.825 290.422 358.482 291.08 359.14 C 291.393 359.453 291.707 359.765 292.021 360.077 C 292.456 360.508 292.888 360.942 293.319 361.375 C 293.565 361.62 293.811 361.866 294.064 362.118 C 294.588 362.718 294.588 362.718 294.588 363.329 C 294.79 363.329 294.992 363.329 295.199 363.329 C 295.722 363.824 296.229 364.336 296.727 364.857 C 297.315 365.444 297.904 366.031 298.493 366.618 C 300.221 368.34 301.947 370.064 303.673 371.787 C 304.715 372.827 305.757 373.867 306.799 374.906 C 307.812 375.916 308.824 376.926 309.836 377.937 C 310.219 378.319 310.603 378.702 310.987 379.084 C 311.526 379.622 312.065 380.16 312.603 380.698 C 312.758 380.853 312.914 381.007 313.074 381.166 C 313.914 382.008 314.711 382.872 315.489 383.771 C 316.574 385.023 317.721 386.2 318.895 387.37 C 319.225 387.7 319.225 387.7 319.561 388.037 C 320.281 388.759 321.002 389.479 321.723 390.199 C 322.228 390.704 322.733 391.209 323.237 391.714 C 324.293 392.77 325.349 393.825 326.405 394.88 C 327.754 396.227 329.102 397.576 330.449 398.925 C 331.491 399.968 332.533 401.01 333.575 402.051 C 334.072 402.548 334.569 403.045 335.066 403.543 C 335.761 404.239 336.458 404.935 337.156 405.631 C 337.358 405.833 337.56 406.036 337.768 406.245 C 338.946 407.418 340.158 408.534 341.419 409.618 C 342.937 410.937 344.351 412.385 345.633 413.934 C 346.224 414.642 346.832 415.242 347.541 415.832 C 349.755 417.746 351.768 419.881 353.824 421.961 C 356.57 424.745 356.57 424.745 359.47 427.366 C 360.259 428.043 360.993 428.765 361.731 429.498 C 362.007 429.769 362.282 430.041 362.566 430.32 C 363.635 431.487 364.488 432.449 364.691 434.043 C 363.632 436.667 359.599 437.984 357.167 439.18 C 356.826 439.348 356.486 439.517 356.135 439.691 C 353.738 440.871 351.325 442.015 348.898 443.133 C 348.595 443.272 348.291 443.412 347.979 443.556 C 344.148 445.298 344.148 445.298 342.253 445.329 C 342.007 445.337 341.761 445.346 341.508 445.355 C 339.729 445.035 338.407 443.611 337.116 442.426 C 336.824 442.16 336.532 441.895 336.231 441.622 C 335.444 440.87 334.722 440.076 334.002 439.261 C 332.142 437.173 330.146 435.225 328.16 433.26 C 327.407 432.515 326.655 431.769 325.904 431.023 C 325.736 430.858 325.569 430.693 325.396 430.523 C 324.58 429.711 323.8 428.887 323.058 428.007 C 321.296 425.986 319.369 424.121 317.473 422.228 C 317.036 421.791 316.599 421.353 316.162 420.916 C 314.981 419.733 313.799 418.552 312.617 417.371 C 311.378 416.132 310.139 414.893 308.9 413.654 C 306.821 411.574 304.742 409.495 302.662 407.416 C 300.258 405.015 297.856 402.612 295.455 400.209 C 293.39 398.143 291.325 396.077 289.259 394.013 C 288.026 392.78 286.794 391.548 285.562 390.315 C 284.404 389.157 283.246 387.999 282.087 386.842 C 281.662 386.417 281.238 385.993 280.813 385.568 C 280.234 384.987 279.653 384.407 279.072 383.828 C 278.905 383.66 278.738 383.493 278.567 383.32 C 277.824 382.582 277.087 381.899 276.27 381.239 C 275.317 380.463 274.551 379.563 273.754 378.63 C 272.846 377.589 271.867 376.62 270.889 375.644 C 270.666 375.421 270.443 375.198 270.213 374.968 C 269.473 374.226 268.731 373.485 267.989 372.744 C 267.455 372.21 266.922 371.676 266.388 371.142 C 265.093 369.846 263.797 368.55 262.501 367.255 C 261.448 366.202 260.394 365.149 259.342 364.095 C 259.191 363.945 259.041 363.795 258.886 363.64 C 258.581 363.335 258.276 363.029 257.971 362.724 C 255.114 359.867 252.256 357.01 249.398 354.154 C 246.948 351.704 244.497 349.254 242.048 346.803 C 239.2 343.953 236.351 341.104 233.502 338.256 C 233.198 337.952 232.894 337.648 232.591 337.344 C 232.366 337.12 232.366 337.12 232.138 336.892 C 231.086 335.84 230.034 334.788 228.982 333.735 C 227.567 332.319 226.151 330.904 224.734 329.489 C 224.214 328.969 223.695 328.45 223.175 327.929 C 222.467 327.22 221.757 326.512 221.048 325.804 C 220.842 325.597 220.636 325.391 220.424 325.178 C 219.421 324.179 218.408 323.254 217.286 322.386 C 216.966 322.043 216.657 321.69 216.359 321.328 C 214.787 319.492 213.058 317.808 211.348 316.103 C 210.98 315.734 210.613 315.366 210.245 314.998 C 209.477 314.23 208.709 313.462 207.94 312.695 C 206.961 311.718 205.983 310.739 205.006 309.76 C 204.247 309 203.488 308.241 202.729 307.483 C 202.368 307.122 202.008 306.762 201.648 306.401 C 201.142 305.894 200.635 305.389 200.128 304.884 C 199.911 304.666 199.911 304.666 199.689 304.443 C 198.894 303.652 198.078 302.904 197.226 302.175 C 195.54 300.712 193.986 299.116 192.416 297.531 C 192.071 297.185 191.726 296.838 191.382 296.492 C 190.644 295.75 189.906 295.007 189.169 294.265 C 188.002 293.088 186.832 291.913 185.662 290.739 C 185.261 290.336 184.859 289.933 184.457 289.529 C 184.256 289.327 184.055 289.125 183.847 288.918 C 181.128 286.187 178.409 283.455 175.694 280.719 C 173.858 278.869 172.02 277.022 170.179 275.177 C 169.206 274.202 168.236 273.226 167.268 272.248 C 166.357 271.328 165.443 270.41 164.527 269.495 C 164.193 269.16 163.861 268.825 163.529 268.488 C 160.669 265.585 158.213 263.421 154.025 263.342 C 153.591 263.332 153.158 263.322 152.725 263.311 C 152.052 263.297 151.378 263.283 150.704 263.271 C 147.498 263.21 144.38 262.953 141.206 262.5 C 140.721 262.436 140.721 262.436 140.226 262.37 C 133.385 261.453 126.93 259.771 120.735 256.695 C 120.54 256.6 120.346 256.505 120.145 256.408 C 116.793 254.761 113.706 252.727 110.652 250.584 C 110.434 250.431 110.216 250.278 109.991 250.12 C 107.435 248.309 105.123 246.408 102.966 244.133 C 102.33 243.469 101.663 242.866 100.964 242.268 C 99.71 241.176 98.524 240.028 97.35 238.851 C 97.142 238.642 96.933 238.434 96.719 238.22 C 96.281 237.783 95.845 237.346 95.408 236.908 C 94.747 236.244 94.083 235.583 93.419 234.921 C 92.992 234.493 92.564 234.065 92.137 233.637 C 91.942 233.443 91.746 233.248 91.545 233.048 C 90.385 231.881 89.281 230.68 88.209 229.432 C 87.528 228.651 86.809 227.923 86.075 227.191 C 85.93 227.046 85.785 226.902 85.636 226.753 C 84.853 225.979 84.055 225.242 83.211 224.537 C 81.774 223.316 80.528 221.912 79.265 220.517 C 78.385 219.554 77.494 218.65 76.501 217.803 C 75.285 216.748 74.14 215.639 73.007 214.497 C 72.802 214.291 72.597 214.086 72.386 213.874 C 71.945 213.432 71.505 212.99 71.064 212.547 C 70.366 211.845 69.667 211.144 68.967 210.443 C 67.231 208.702 65.496 206.96 63.761 205.218 C 62.292 203.743 60.822 202.268 59.352 200.794 C 58.666 200.107 57.981 199.418 57.296 198.729 C 56.872 198.304 56.448 197.878 56.023 197.453 C 55.836 197.264 55.649 197.076 55.455 196.881 C 54.311 195.736 53.127 194.656 51.896 193.605 C 51.275 193.052 50.788 192.477 50.327 191.787 C 50.182 191.579 50.038 191.371 49.889 191.157 C 48.803 188.75 49.436 186.707 50.136 184.282 C 50.233 183.933 50.331 183.585 50.432 183.225 C 51.845 178.266 53.466 173.413 55.426 168.642 C 55.551 168.333 55.677 168.024 55.807 167.706 C 56.423 166.244 57.001 164.986 58.099 163.81 Z" fill="#B3B3B3" style="" transform="matrix(1, 0, 0, 1, 1.1368683772161603e-13, 0)"/>
    <path d="M 182.454 41.594 C 184.669 42.766 186.395 44.492 188.138 46.26 C 188.407 46.53 188.676 46.8 188.953 47.078 C 189.662 47.789 190.37 48.503 191.076 49.218 C 191.79 49.939 192.507 50.657 193.225 51.376 C 193.776 51.93 194.328 52.485 194.879 53.04 C 195.26 53.423 195.26 53.423 195.65 53.814 C 195.891 54.059 196.133 54.304 196.382 54.556 C 196.592 54.767 196.801 54.979 197.017 55.197 C 197.593 55.808 198.142 56.428 198.689 57.065 C 199.865 58.411 201.108 59.679 202.374 60.941 C 202.619 61.186 202.863 61.431 203.115 61.684 C 203.934 62.504 204.754 63.323 205.574 64.141 C 206.168 64.735 206.762 65.33 207.355 65.924 C 208.645 67.215 209.936 68.506 211.227 69.796 C 213.147 71.715 215.066 73.635 216.985 75.554 C 220.412 78.983 223.841 82.411 227.269 85.839 C 230.27 88.839 233.27 91.838 236.269 94.839 C 236.468 95.038 236.668 95.237 236.873 95.442 C 237.68 96.25 238.488 97.058 239.296 97.866 C 246.874 105.444 254.452 113.022 262.031 120.599 C 268.764 127.331 275.497 134.063 282.228 140.796 C 289.792 148.362 297.356 155.926 304.921 163.49 C 305.727 164.296 306.534 165.103 307.34 165.909 C 307.539 166.108 307.737 166.306 307.942 166.511 C 310.94 169.509 313.938 172.507 316.936 175.506 C 320.344 178.915 323.753 182.324 327.163 185.732 C 329.071 187.639 330.979 189.547 332.886 191.456 C 334.161 192.73 335.435 194.005 336.71 195.279 C 337.437 196.004 338.163 196.73 338.888 197.457 C 339.671 198.24 340.454 199.022 341.238 199.805 C 341.462 200.029 341.686 200.254 341.916 200.485 C 343.141 201.706 344.397 202.874 345.709 204.001 C 346.338 204.545 346.938 205.118 347.542 205.689 C 349.874 207.769 352.299 209.037 355.424 209.106 C 355.796 209.115 356.168 209.125 356.551 209.135 C 356.95 209.144 357.348 209.154 357.759 209.164 C 375.578 209.695 391.335 214.832 404.583 227.057 C 404.762 227.221 404.941 227.384 405.125 227.553 C 405.736 228.111 406.343 228.672 406.951 229.234 C 407.229 229.489 407.229 229.489 407.513 229.748 C 408.666 230.822 409.758 231.94 410.825 233.099 C 413.606 236.119 416.505 239.017 419.414 241.913 C 419.971 242.469 420.527 243.024 421.084 243.58 C 422.272 244.767 423.462 245.953 424.651 247.139 C 426.372 248.855 428.092 250.571 429.811 252.288 C 432.603 255.077 435.395 257.865 438.188 260.652 C 438.355 260.819 438.521 260.985 438.693 261.156 C 440.555 263.014 442.417 264.872 444.279 266.729 C 444.447 266.897 444.615 267.064 444.788 267.237 C 445.127 267.575 445.466 267.913 445.805 268.252 C 445.973 268.419 446.14 268.586 446.313 268.758 C 446.481 268.925 446.648 269.092 446.82 269.264 C 449.609 272.046 452.397 274.829 455.184 277.613 C 456.9 279.327 458.616 281.04 460.334 282.752 C 461.647 284.06 462.959 285.37 464.269 286.68 C 464.808 287.218 465.346 287.755 465.885 288.291 C 466.62 289.022 467.352 289.754 468.084 290.487 C 468.407 290.807 468.407 290.807 468.736 291.133 C 469.029 291.428 469.029 291.428 469.328 291.729 C 469.498 291.897 469.667 292.066 469.841 292.24 C 471.123 293.746 471.119 295.333 470.973 297.242 C 470.166 303.719 467.79 310.219 465.634 316.352 C 465.487 316.781 465.487 316.781 465.337 317.218 C 465.242 317.482 465.146 317.746 465.048 318.018 C 464.965 318.25 464.883 318.482 464.798 318.721 C 464.394 319.47 463.971 319.81 463.247 320.248 C 461.889 320.213 461.165 319.624 460.192 318.72 C 459.881 318.366 459.573 318.009 459.268 317.65 C 457.886 316.061 456.402 314.581 454.911 313.094 C 454.611 312.793 454.311 312.493 454.011 312.193 C 453.386 311.567 452.761 310.942 452.135 310.317 C 451.337 309.522 450.542 308.725 449.746 307.928 C 449.128 307.309 448.509 306.69 447.89 306.072 C 447.456 305.638 447.021 305.203 446.587 304.768 C 445.158 303.344 443.711 301.987 442.165 300.693 C 441.835 300.34 441.514 299.979 441.21 299.605 C 440.21 298.431 439.147 297.334 438.059 296.244 C 437.898 296.082 437.738 295.92 437.572 295.753 C 436.692 294.875 435.789 294.04 434.845 293.231 C 433.607 292.159 432.499 290.997 431.394 289.789 C 429.97 288.252 428.539 286.727 427.059 285.244 C 426.789 284.972 426.518 284.701 426.239 284.422 C 425.609 283.82 424.98 283.256 424.317 282.693 C 422.519 281.123 420.854 279.419 419.171 277.729 C 418.798 277.356 418.425 276.983 418.053 276.61 C 417.254 275.81 416.456 275.01 415.659 274.21 C 414.396 272.943 413.132 271.677 411.867 270.411 C 408.956 267.496 406.046 264.579 403.136 261.662 C 400.467 258.988 397.799 256.314 395.128 253.64 C 393.873 252.384 392.619 251.126 391.365 249.869 C 390.583 249.084 389.801 248.301 389.018 247.518 C 388.657 247.156 388.297 246.794 387.936 246.432 C 386.261 244.749 384.589 243.078 382.776 241.54 C 381.953 240.832 381.19 240.068 380.426 239.298 C 380.28 239.153 380.134 239.009 379.984 238.86 C 379.167 238.04 378.392 237.198 377.639 236.32 C 376.481 234.992 375.258 233.742 374.011 232.499 C 373.782 232.27 373.554 232.041 373.318 231.805 C 372.838 231.325 372.358 230.845 371.877 230.365 C 371.147 229.637 370.419 228.907 369.691 228.178 C 369.221 227.708 368.752 227.239 368.282 226.77 C 368.068 226.554 367.853 226.339 367.632 226.118 C 366.417 224.908 365.169 223.758 363.872 222.637 C 363.236 222.083 362.637 221.501 362.046 220.899 C 361.831 220.681 361.615 220.463 361.393 220.239 C 360.956 219.794 360.519 219.349 360.083 218.904 C 358.673 217.48 357.217 216.14 355.697 214.836 C 355.333 214.512 354.97 214.187 354.608 213.862 C 352.651 212.194 350.841 211.445 348.257 211.432 C 332.568 211.199 317.588 207.613 304.671 198.336 C 304.345 198.104 304.019 197.871 303.683 197.631 C 301.948 196.361 300.312 195.02 298.734 193.56 C 298.007 192.89 297.27 192.232 296.531 191.576 C 294.851 190.065 293.248 188.485 291.652 186.886 C 291.353 186.587 291.053 186.287 290.753 185.988 C 290.132 185.367 289.51 184.745 288.89 184.123 C 288.099 183.33 287.307 182.539 286.515 181.749 C 285.898 181.133 285.282 180.517 284.667 179.901 C 284.235 179.469 283.802 179.037 283.37 178.606 C 281.952 177.182 280.601 175.739 279.311 174.199 C 278.965 173.875 278.61 173.561 278.242 173.263 C 276.962 172.174 275.768 171.008 274.575 169.826 C 274.381 169.635 274.186 169.445 273.986 169.249 C 273.806 169.068 273.625 168.888 273.439 168.703 C 273.275 168.54 273.112 168.378 272.943 168.21 C 272.589 167.782 272.589 167.782 272.589 167.171 C 272.388 167.171 272.186 167.171 271.978 167.171 C 271.526 166.708 271.526 166.708 271.005 166.076 C 269.969 164.858 268.864 163.781 267.685 162.704 C 265.22 160.416 262.831 158.057 260.452 155.68 C 260.259 155.487 260.065 155.294 259.866 155.094 C 258.609 153.837 257.352 152.579 256.096 151.32 C 254.947 150.169 253.797 149.019 252.647 147.868 C 250.659 145.88 248.672 143.891 246.686 141.902 C 243.811 139.024 240.936 136.146 238.06 133.269 C 233.389 128.596 228.72 123.923 224.05 119.25 C 223.632 118.831 223.632 118.831 223.205 118.404 C 221.226 116.423 219.247 114.442 217.267 112.46 C 215.001 110.192 212.735 107.924 210.469 105.656 C 210.19 105.376 209.91 105.097 209.623 104.809 C 204.966 100.148 200.309 95.488 195.651 90.828 C 192.782 87.958 189.914 85.087 187.046 82.215 C 185.083 80.25 183.12 78.285 181.156 76.32 C 180.023 75.187 178.891 74.054 177.759 72.92 C 176.723 71.882 175.686 70.844 174.648 69.807 C 174.274 69.432 173.899 69.057 173.525 68.682 C 171.826 66.978 170.134 65.281 168.297 63.724 C 166.691 62.345 165.209 60.814 163.705 59.327 C 163.28 58.91 162.855 58.494 162.427 58.081 C 161.804 57.478 161.187 56.87 160.571 56.26 C 160.38 56.077 160.188 55.894 159.992 55.706 C 159.079 54.789 158.659 54.248 158.293 52.977 C 158.317 51.982 158.317 51.982 158.651 51.427 C 160.16 50.298 161.719 49.405 163.415 48.583 C 163.702 48.442 163.989 48.3 164.285 48.155 C 166.697 46.985 169.146 45.901 171.608 44.84 C 171.953 44.691 172.299 44.542 172.655 44.389 C 180.227 41.178 180.227 41.178 182.454 41.594 Z" fill="#7A7A7A" style="" transform="matrix(1, 0, 0, 1, 1.1368683772161603e-13, 0)"/>
    <path d="M 43.128 230.113 C 45.193 230.694 46.665 232.345 48.018 233.93 C 49.552 235.702 51.237 237.328 52.905 238.974 C 53.549 239.609 54.191 240.246 54.833 240.883 C 55.116 241.162 55.398 241.441 55.689 241.728 C 56.349 242.395 56.966 243.088 57.579 243.799 C 58.805 245.213 60.115 246.533 61.44 247.854 C 61.695 248.11 61.951 248.366 62.214 248.63 C 62.752 249.168 63.29 249.705 63.828 250.242 C 64.646 251.059 65.463 251.877 66.28 252.696 C 66.805 253.221 67.33 253.746 67.856 254.271 C 68.097 254.513 68.339 254.755 68.587 255.004 C 69.626 256.039 70.667 257.051 71.783 258.002 C 73.39 259.387 74.861 260.91 76.348 262.422 C 76.889 262.971 77.432 263.52 77.976 264.068 C 79.519 265.624 81.062 267.181 82.599 268.743 C 83.544 269.703 84.493 270.66 85.443 271.615 C 85.801 271.977 86.158 272.34 86.515 272.703 C 91.29 277.579 95.056 278.419 101.658 278.694 C 118.18 279.393 133.74 284.619 145.869 296.233 C 146.477 296.809 147.086 297.35 147.723 297.891 C 149.659 299.581 151.45 301.422 153.265 303.24 C 153.677 303.652 154.089 304.063 154.501 304.475 C 155.616 305.588 156.729 306.702 157.842 307.816 C 159.01 308.985 160.179 310.153 161.348 311.321 C 163.31 313.282 165.271 315.245 167.232 317.207 C 169.495 319.472 171.76 321.736 174.025 323.999 C 175.974 325.947 177.922 327.895 179.87 329.843 C 181.031 331.005 182.193 332.167 183.355 333.328 C 184.448 334.42 185.54 335.513 186.632 336.606 C 187.031 337.006 187.43 337.406 187.83 337.805 C 191.503 341.472 191.503 341.472 193.025 343.284 C 193.811 344.182 194.705 344.966 195.593 345.76 C 196.677 346.731 197.712 347.701 198.652 348.814 C 200.13 350.516 201.733 352.096 203.328 353.688 C 203.673 354.034 204.019 354.38 204.364 354.726 C 205.297 355.66 206.23 356.592 207.164 357.525 C 208.144 358.505 209.124 359.485 210.104 360.465 C 211.748 362.111 213.394 363.756 215.04 365.4 C 216.938 367.297 218.836 369.195 220.733 371.093 C 222.366 372.728 224 374.363 225.635 375.996 C 226.609 376.97 227.583 377.944 228.556 378.918 C 229.471 379.835 230.388 380.75 231.304 381.665 C 231.639 381.999 231.974 382.334 232.308 382.669 C 233.911 384.275 235.518 385.862 237.249 387.333 C 238.091 388.061 238.868 388.851 239.648 389.644 C 239.799 389.796 239.95 389.949 240.106 390.106 C 240.404 390.407 240.702 390.708 240.999 391.01 C 241.399 391.414 241.803 391.815 242.208 392.215 C 242.965 392.98 243.683 393.77 244.403 394.571 C 247.296 397.747 250.392 400.739 253.44 403.766 C 254.223 404.544 255.004 405.324 255.784 406.105 C 256.14 406.46 256.495 406.816 256.851 407.171 C 263.982 414.302 271.113 421.434 278.244 428.565 C 278.428 428.749 278.612 428.933 278.802 429.122 C 279.256 429.577 279.71 430.032 280.163 430.488 C 280.837 431.157 281.53 431.801 282.23 432.442 C 284.519 434.544 286.731 436.72 288.925 438.921 C 289.079 439.075 289.233 439.229 289.391 439.389 C 290.507 440.508 291.622 441.629 292.736 442.751 C 293.859 443.881 294.982 445.011 296.107 446.139 C 296.55 446.584 296.992 447.03 297.433 447.475 C 298.826 448.873 300.231 450.23 301.735 451.509 C 303.138 452.729 304.247 453.975 304.556 455.832 C 303.742 457.46 302.367 457.794 300.699 458.352 C 296.268 459.72 291.861 460.287 287.253 460.623 C 286.46 460.681 285.669 460.744 284.876 460.806 C 282.334 461.001 279.792 461.149 277.241 461.186 C 277.024 461.192 276.806 461.198 276.581 461.204 C 274.768 461.211 273.067 460.842 271.641 459.647 C 271.488 459.453 271.334 459.259 271.176 459.059 C 271.021 458.869 270.866 458.678 270.706 458.483 C 270.387 458.062 270.072 457.64 269.764 457.212 C 268.672 455.711 267.487 454.387 266.168 453.082 C 265.96 452.874 265.751 452.665 265.537 452.45 C 264.844 451.757 264.149 451.065 263.453 450.374 C 262.954 449.875 262.454 449.376 261.955 448.877 C 260.882 447.805 259.808 446.734 258.733 445.664 C 257.033 443.97 255.335 442.274 253.637 440.578 C 251.256 438.2 248.873 435.823 246.49 433.446 C 246.339 433.296 246.188 433.145 246.033 432.99 C 245.882 432.839 245.73 432.689 245.574 432.533 C 243.432 430.397 241.289 428.26 239.147 426.122 C 238.996 425.972 238.846 425.821 238.69 425.666 C 236.173 423.155 233.656 420.642 231.14 418.13 C 229.453 416.445 227.765 414.761 226.077 413.078 C 225.025 412.03 223.974 410.981 222.924 409.933 C 222.438 409.447 221.951 408.962 221.464 408.478 C 220.798 407.815 220.133 407.151 219.468 406.486 C 219.277 406.296 219.086 406.107 218.889 405.911 C 217.749 404.77 216.669 403.59 215.617 402.367 C 214.964 401.617 214.271 400.913 213.569 400.209 C 213.427 400.066 213.284 399.923 213.137 399.776 C 212.675 399.313 212.212 398.851 211.749 398.389 C 211.423 398.062 211.096 397.734 210.769 397.408 C 210.088 396.726 209.406 396.044 208.724 395.364 C 207.855 394.497 206.988 393.629 206.122 392.761 C 205.448 392.086 204.774 391.412 204.1 390.739 C 203.78 390.419 203.461 390.1 203.141 389.78 C 202.693 389.331 202.243 388.882 201.794 388.434 C 201.539 388.18 201.285 387.926 201.024 387.665 C 200.374 387.044 199.718 386.456 199.037 385.871 C 197.548 384.577 196.163 383.186 194.772 381.787 C 194.484 381.499 194.195 381.21 193.907 380.921 C 193.29 380.303 192.675 379.685 192.059 379.067 C 191.084 378.088 190.107 377.109 189.13 376.131 C 186.881 373.878 184.633 371.623 182.385 369.369 C 180.323 367.301 178.261 365.233 176.198 363.167 C 175.229 362.197 174.261 361.225 173.293 360.254 C 172.689 359.647 172.084 359.041 171.479 358.436 C 171.069 358.025 170.661 357.614 170.252 357.203 C 168.926 355.877 167.582 354.598 166.155 353.383 C 165.465 352.779 164.859 352.12 164.255 351.432 C 163.909 351.041 163.909 351.041 163.556 350.642 C 163.154 350.178 162.754 349.712 162.358 349.243 C 161.421 348.139 160.453 347.145 159.365 346.189 C 157.687 344.69 156.094 343.119 154.508 341.524 C 154.202 341.217 153.895 340.91 153.589 340.603 C 152.935 339.948 152.282 339.293 151.629 338.637 C 150.594 337.599 149.559 336.561 148.523 335.524 C 146.325 333.323 144.128 331.12 141.932 328.917 C 139.558 326.536 137.183 324.155 134.807 321.776 C 133.779 320.747 132.752 319.717 131.726 318.687 C 131.086 318.044 130.445 317.402 129.804 316.76 C 129.369 316.325 128.936 315.889 128.502 315.453 C 127.136 314.086 125.753 312.761 124.284 311.505 C 122.828 310.255 121.519 308.855 120.277 307.396 C 119.588 306.596 118.883 305.882 118.081 305.197 C 115.074 302.599 112.034 299.957 109.639 296.772 C 108.631 295.475 107.45 294.318 106.198 293.257 C 104.856 292.115 103.602 290.91 102.367 289.655 C 102.2 289.486 102.033 289.316 101.861 289.142 C 101.166 288.436 100.472 287.73 99.782 287.021 C 95.809 282.733 95.809 282.733 90.486 280.833 C 89.848 280.83 89.21 280.835 88.572 280.846 C 86.088 280.855 83.637 280.676 81.167 280.451 C 80.941 280.43 80.715 280.41 80.481 280.389 C 74.795 279.871 69.382 278.968 63.974 277.094 C 63.316 276.868 62.655 276.654 61.992 276.443 C 56.147 274.537 46.638 270.995 43.47 265.362 C 42.118 262.506 42.318 258.886 42.173 255.778 C 42.16 255.517 42.147 255.256 42.134 254.986 C 41.925 250.667 41.848 246.353 41.848 242.029 C 41.848 241.757 41.847 241.485 41.847 241.205 C 41.847 238.519 41.879 235.833 42.004 233.149 C 42.021 232.761 42.039 232.373 42.056 231.974 C 42.216 230.998 42.343 230.686 43.128 230.113 Z" fill="#CDCDCD" style="" transform="matrix(1, 0, 0, 1, 1.1368683772161603e-13, 0)"/>
    <path d="M 252.613 29.182 C 252.883 29.453 253.153 29.724 253.431 30.003 C 253.583 30.155 253.735 30.307 253.892 30.463 C 254.397 30.968 254.9 31.475 255.403 31.982 C 255.767 32.346 256.13 32.71 256.494 33.074 C 257.275 33.856 258.055 34.639 258.835 35.423 C 260.069 36.663 261.305 37.902 262.541 39.14 C 264.498 41.101 266.453 43.062 268.408 45.025 C 271.905 48.535 275.404 52.044 278.904 55.551 C 280.131 56.781 281.358 58.012 282.583 59.243 C 283.348 60.011 284.114 60.778 284.879 61.546 C 285.232 61.9 285.585 62.254 285.937 62.609 C 288.062 64.76 288.062 64.76 290.311 66.78 C 291.34 67.658 292.243 68.627 293.148 69.628 C 295.332 72.016 297.614 74.3 299.904 76.586 C 300.37 77.053 300.837 77.52 301.303 77.987 C 302.575 79.26 303.848 80.532 305.121 81.804 C 306.497 83.179 307.873 84.556 309.248 85.933 C 311.783 88.469 314.32 91.005 316.856 93.541 C 319.199 95.883 321.542 98.225 323.884 100.568 C 324.04 100.724 324.195 100.879 324.356 101.04 C 324.988 101.672 325.62 102.304 326.252 102.937 C 332.173 108.859 338.095 114.78 344.018 120.701 C 349.276 125.958 354.534 131.216 359.791 136.474 C 365.704 142.388 371.617 148.302 377.531 154.215 C 378.161 154.846 378.792 155.476 379.422 156.107 C 379.655 156.339 379.655 156.339 379.893 156.577 C 382.235 158.919 384.576 161.261 386.918 163.603 C 389.579 166.265 392.241 168.927 394.904 171.588 C 396.263 172.946 397.621 174.304 398.978 175.662 C 400.221 176.906 401.464 178.149 402.708 179.391 C 403.158 179.841 403.608 180.29 404.057 180.74 C 406.923 183.631 406.923 183.631 409.949 186.351 C 410.527 186.845 411.039 187.389 411.553 187.948 C 415.086 191.502 418.613 191.951 423.422 192.192 C 424.547 192.249 425.671 192.317 426.795 192.383 C 427.237 192.409 427.678 192.435 428.118 192.46 C 428.519 192.484 428.919 192.507 429.332 192.531 C 429.655 192.55 429.979 192.569 430.312 192.588 C 444.923 193.492 459.19 200.286 469.704 210.347 C 470.304 210.91 470.892 211.431 471.529 211.946 C 472.355 212.647 473.017 213.342 473.693 214.186 C 473.892 214.432 474.092 214.677 474.298 214.929 C 477.182 219.172 477.059 225.343 477.512 230.266 C 477.546 230.626 477.579 230.987 477.614 231.359 C 478.057 236.183 478.364 240.983 478.352 245.829 C 478.352 246.076 478.352 246.323 478.352 246.578 C 478.345 248.825 478.298 250.876 477.607 253.028 C 476.505 252.941 475.915 252.845 475.069 252.111 C 474.854 251.853 474.64 251.595 474.418 251.329 C 474.204 251.076 473.991 250.824 473.77 250.564 C 473.392 250.109 473.013 249.654 472.636 249.199 C 470.734 246.966 468.632 244.927 466.558 242.857 C 466.12 242.417 465.681 241.978 465.242 241.539 C 464.055 240.35 462.867 239.163 461.679 237.976 C 460.434 236.731 459.188 235.485 457.943 234.239 C 455.852 232.148 453.761 230.057 451.669 227.967 C 449.254 225.554 446.84 223.139 444.427 220.724 C 442.351 218.647 440.274 216.57 438.197 214.494 C 436.959 213.255 435.72 212.017 434.482 210.778 C 433.318 209.613 432.153 208.448 430.987 207.285 C 430.561 206.859 430.135 206.432 429.709 206.006 C 426.925 203.202 426.925 203.202 423.986 200.564 C 423.29 199.967 422.668 199.306 422.037 198.642 C 419.217 195.796 416.206 193.75 412.107 193.7 C 393.812 193.334 376.599 188.32 363.023 175.588 C 362.824 175.401 362.625 175.215 362.419 175.023 C 360.541 173.256 358.71 171.443 356.893 169.613 C 356.327 169.043 355.759 168.474 355.192 167.905 C 353.991 166.7 352.79 165.494 351.591 164.288 C 350.19 162.88 348.789 161.472 347.386 160.066 C 346.832 159.51 346.278 158.952 345.725 158.395 C 344.167 156.83 342.604 155.288 340.922 153.855 C 340.2 153.233 339.526 152.569 338.852 151.895 C 338.58 151.624 338.308 151.352 338.028 151.073 C 337.752 150.795 337.476 150.518 337.192 150.233 C 336.915 149.957 336.638 149.681 336.352 149.397 C 336.081 149.125 335.809 148.853 335.529 148.573 C 335.287 148.33 335.045 148.088 334.796 147.838 C 334.165 147.176 333.568 146.505 332.972 145.812 C 331.952 144.638 330.859 143.588 329.711 142.541 C 327.174 140.186 324.719 137.753 322.273 135.305 C 322.077 135.11 321.882 134.915 321.681 134.713 C 320.468 133.499 319.257 132.285 318.046 131.069 C 317.008 130.029 315.97 128.989 314.931 127.949 C 313.26 126.275 311.589 124.601 309.919 122.925 C 309.144 122.147 308.367 121.37 307.591 120.593 C 306.537 119.539 305.484 118.485 304.431 117.432 C 303.869 116.869 303.307 116.307 302.745 115.744 C 302.522 115.521 302.522 115.521 302.295 115.294 C 295.455 108.448 288.614 101.604 281.773 94.759 C 280.784 93.771 279.795 92.782 278.807 91.793 C 278.61 91.596 278.413 91.399 278.21 91.196 C 275.022 88.006 271.834 84.816 268.646 81.625 C 265.37 78.347 262.094 75.069 258.818 71.792 C 256.799 69.772 254.779 67.752 252.761 65.731 C 251.377 64.345 249.992 62.96 248.608 61.575 C 247.809 60.777 247.011 59.979 246.214 59.18 C 245.348 58.312 244.481 57.446 243.613 56.579 C 243.364 56.329 243.114 56.078 242.856 55.82 C 241.568 54.535 240.256 53.298 238.875 52.115 C 238.251 51.575 237.666 51.005 237.089 50.416 C 236.902 50.226 236.715 50.036 236.522 49.841 C 236.324 49.64 236.127 49.439 235.924 49.232 C 235.059 48.364 234.191 47.501 233.32 46.639 C 232.513 45.839 231.708 45.038 230.905 44.234 C 230.722 44.05 230.539 43.867 230.35 43.678 C 229.623 42.924 228.941 42.135 228.264 41.336 C 226.333 39.178 224.248 37.091 222.041 35.215 C 221.222 34.513 220.453 33.785 219.711 33 C 219.531 32.811 219.351 32.621 219.166 32.425 C 218.814 31.816 218.814 31.816 218.796 31.036 C 219.265 29.951 219.874 29.825 220.952 29.372 C 221.78 29.184 222.578 29.031 223.415 28.907 C 223.653 28.869 223.891 28.832 224.136 28.793 C 226.771 28.389 229.417 28.061 232.065 27.75 C 232.888 27.653 233.712 27.553 234.535 27.453 C 248.82 25.741 248.82 25.741 252.613 29.182 Z" fill="#424242" style="" transform="matrix(1, 0, 0, 1, 1.1368683772161603e-13, 0)"/>
    <path d="M 54.577 298.67 C 55.675 298.706 56.822 298.891 57.788 299.413 C 65.469 303.559 73.359 307.457 80.403 312.609 C 85.567 316.386 199.883 431.776 214.593 446.494 C 217.501 449.402 220.548 452.197 223.146 455.385 C 223.735 456.108 224.94 458.055 224.008 458.047 C 218.388 457.999 212.745 456.931 207.382 455.252 C 195.651 451.58 184.174 447.063 172.944 442.063 C 171.27 441.318 170.372 439.454 169.049 438.187 C 167.253 436.467 91.424 360.393 65.601 334.771 C 63.717 332.901 61.033 331.655 59.819 329.294 C 56.099 322.055 53.557 314.248 51.071 306.498 C 50.319 304.153 49.148 301.413 50.155 299.165 C 50.761 297.811 53.095 298.622 54.577 298.67 Z" fill="#E6E6E6" style="" transform="matrix(1, 0, 0, 1, 1.1368683772161603e-13, 0)"/>
    <path d="M 298.255 29.066 C 300.404 28.907 302.338 29.491 304.404 30.041 C 304.604 30.093 304.804 30.146 305.011 30.2 C 314.598 32.722 324.11 35.507 333.477 38.755 C 334.181 38.999 334.886 39.242 335.592 39.481 C 338.921 40.613 342.169 41.908 345.388 43.322 C 345.956 43.571 346.524 43.817 347.093 44.063 C 350.403 45.546 353.168 47.436 355.658 50.072 C 356.907 51.382 356.907 51.382 358.277 52.56 C 358.929 53.098 359.398 53.584 359.936 54.225 C 361.541 56.076 363.291 57.783 365.025 59.51 C 365.415 59.9 365.805 60.29 366.195 60.68 C 367.262 61.747 368.331 62.813 369.399 63.878 C 370.553 65.03 371.706 66.182 372.859 67.334 C 374.856 69.329 376.853 71.323 378.851 73.317 C 381.741 76.203 384.631 79.089 387.52 81.976 C 392.211 86.663 396.902 91.35 401.594 96.036 C 401.875 96.316 402.155 96.597 402.445 96.885 C 406.429 100.865 410.414 104.845 414.4 108.824 C 414.68 109.104 414.961 109.385 415.25 109.674 C 415.531 109.953 415.811 110.234 416.1 110.522 C 420.775 115.19 425.45 119.86 430.123 124.53 C 433.005 127.41 435.887 130.289 438.771 133.167 C 440.747 135.138 442.721 137.111 444.695 139.084 C 445.834 140.223 446.973 141.361 448.113 142.497 C 449.158 143.538 450.201 144.58 451.243 145.624 C 451.62 146.001 451.997 146.377 452.375 146.753 C 454.828 149.193 457.091 151.556 458.607 154.701 C 458.708 154.91 458.81 155.118 458.915 155.333 C 460.898 159.446 462.615 163.674 464.258 167.932 C 464.41 168.326 464.564 168.719 464.718 169.112 C 464.934 169.667 465.146 170.223 465.358 170.779 C 465.482 171.1 465.605 171.421 465.732 171.751 C 466.013 172.728 466.091 173.494 465.997 174.504 C 465.386 175.115 465.386 175.115 464.724 175.202 C 462.475 175.202 460.425 174.863 458.244 174.333 C 457.897 174.249 457.551 174.166 457.194 174.081 C 444.784 171.027 434.646 164.704 425.479 155.921 C 424.892 155.36 424.321 154.856 423.675 154.36 C 423.024 153.817 422.538 153.306 421.994 152.664 C 420.616 151.075 419.135 149.597 417.646 148.112 C 417.347 147.812 417.047 147.513 416.748 147.213 C 416.124 146.589 415.5 145.965 414.875 145.342 C 414.081 144.549 413.288 143.755 412.495 142.961 C 411.879 142.343 411.261 141.726 410.643 141.109 C 410.21 140.676 409.778 140.243 409.346 139.81 C 408.944 139.409 408.944 139.409 408.533 139 C 408.301 138.768 408.068 138.536 407.829 138.296 C 407.195 137.693 406.552 137.119 405.889 136.548 C 404.44 135.289 403.087 133.941 401.731 132.582 C 401.32 132.172 401.32 132.172 400.9 131.753 C 400.156 131.01 399.412 130.266 398.668 129.521 C 397.885 128.737 397.102 127.954 396.318 127.172 C 395.004 125.857 393.689 124.543 392.376 123.228 C 390.862 121.712 389.348 120.198 387.832 118.685 C 386.526 117.379 385.22 116.074 383.914 114.767 C 383.137 113.99 382.36 113.212 381.581 112.435 C 380.713 111.568 379.847 110.7 378.98 109.831 C 378.726 109.578 378.472 109.325 378.21 109.063 C 377.17 108.019 376.154 106.978 375.209 105.847 C 374.189 104.661 373.064 103.613 371.916 102.554 C 369.361 100.197 366.902 97.753 364.448 95.29 C 363.967 94.808 363.486 94.326 363.004 93.845 C 361.978 92.817 360.952 91.789 359.926 90.761 C 358.302 89.133 356.677 87.506 355.052 85.879 C 352.773 83.598 350.495 81.317 348.217 79.035 C 348.073 78.891 347.929 78.747 347.781 78.598 C 346.759 77.575 345.738 76.551 344.716 75.528 C 343.545 74.355 342.374 73.182 341.203 72.009 C 341.059 71.864 340.915 71.72 340.766 71.571 C 338.355 69.156 335.944 66.741 333.531 64.327 C 331.917 62.711 330.304 61.095 328.691 59.478 C 327.688 58.473 326.684 57.468 325.68 56.463 C 325.216 55.999 324.753 55.534 324.29 55.069 C 323.655 54.433 323.02 53.797 322.384 53.161 C 322.203 52.979 322.022 52.797 321.835 52.609 C 320.709 51.486 319.542 50.424 318.337 49.385 C 317.72 48.849 317.136 48.288 316.561 47.708 C 316.349 47.495 316.137 47.282 315.918 47.062 C 315.697 46.839 315.477 46.616 315.25 46.387 C 315.015 46.151 314.781 45.915 314.539 45.671 C 313.544 44.672 312.552 43.671 311.559 42.67 C 310.83 41.935 310.099 41.201 309.369 40.467 C 309.148 40.244 308.928 40.021 308.701 39.792 C 307.473 38.558 306.216 37.379 304.896 36.245 C 304.149 35.602 303.428 34.93 302.704 34.261 C 301.444 33.101 300.152 32.068 298.738 31.104 C 298.255 30.594 298.255 30.594 298.182 29.77 C 298.206 29.538 298.23 29.305 298.255 29.066 Z" fill="#2C2C2C" style="" transform="matrix(1, 0, 0, 1, 1.1368683772161603e-13, 0)"/>
</svg>